<svg xmlns="http://www.w3.org/2000/svg" viewBox="0 0 838 552" width="838" height="552" font-family="Segoe UI, system-ui, sans-serif">
<rect width="838" height="552" fill="#ffffff"/>
<defs>
<marker id="arr94a3b8" viewBox="0 0 10 10" refX="9" refY="5" markerWidth="7" markerHeight="7" orient="auto-start-reverse"><path d="M 0 1 L 9 5 L 0 9 z" fill="#94a3b8"/></marker>
<marker id="arrf59e0b" viewBox="0 0 10 10" refX="9" refY="5" markerWidth="7" markerHeight="7" orient="auto-start-reverse"><path d="M 0 1 L 9 5 L 0 9 z" fill="#f59e0b"/></marker>
<marker id="arr16a34a" viewBox="0 0 10 10" refX="9" refY="5" markerWidth="7" markerHeight="7" orient="auto-start-reverse"><path d="M 0 1 L 9 5 L 0 9 z" fill="#16a34a"/></marker>
<marker id="arrdc2626" viewBox="0 0 10 10" refX="9" refY="5" markerWidth="7" markerHeight="7" orient="auto-start-reverse"><path d="M 0 1 L 9 5 L 0 9 z" fill="#dc2626"/></marker>
<marker id="arrc2c7cf" viewBox="0 0 10 10" refX="9" refY="5" markerWidth="7" markerHeight="7" orient="auto-start-reverse"><path d="M 0 1 L 9 5 L 0 9 z" fill="#c2c7cf"/></marker>
</defs>
<text x="419" y="28" text-anchor="middle" font-size="17" font-weight="700" fill="#1e293b">Architecture impact — shop-api (main → feature/analytics-refunds)</text>
<g transform="translate(24,52)">
<path d="M 365.6666666666667 68 L 365.6666666666667 84 Q 365.6666666666667 92 357.6666666666667 92 L 56 92 Q 48 92 48 100 L 48 260" fill="none" stroke="#94a3b8" stroke-width="1.5" marker-end="url(#arr94a3b8)" opacity="1"/>
<path d="M 397.6666666666667 68 L 397.6666666666667 138" fill="none" stroke="#f59e0b" stroke-width="1.5" marker-end="url(#arrf59e0b)" opacity="1"/>
<g><rect x="381.6666666666667" y="127" width="32" height="20" rx="10" fill="#fff" stroke="#f59e0b" stroke-width="1.2"/><text x="397.6666666666667" y="142" text-anchor="middle" font-size="12" >🔄</text></g>
<path d="M 381.6666666666667 68 L 381.6666666666667 94 Q 381.6666666666667 102 373.6666666666667 102 L 129 102 Q 121 102 121 110 L 121 138" fill="none" stroke="#94a3b8" stroke-width="1.5" marker-end="url(#arr94a3b8)" opacity="1"/>
<path d="M 365.6666666666667 182 L 365.6666666666667 208 Q 365.6666666666667 216 357.6666666666667 216 L 104 216 Q 96 216 96 224 L 96 260" fill="none" stroke="#94a3b8" stroke-width="1.5" marker-end="url(#arr94a3b8)" opacity="1"/>
<path d="M 397.6666666666667 182 L 397.6666666666667 228 Q 397.6666666666667 236 389.6666666666667 236 L 371.8333333333333 236 Q 363.8333333333333 236 363.8333333333333 244 L 363.8333333333333 260" fill="none" stroke="#f59e0b" stroke-width="1.5" marker-end="url(#arrf59e0b)" opacity="1"/>
<g><rect x="347.8333333333333" y="225" width="32" height="20" rx="10" fill="#fff" stroke="#f59e0b" stroke-width="1.2"/><text x="363.8333333333333" y="240" text-anchor="middle" font-size="12" >🔄</text></g>
<path d="M 381.6666666666667 182 L 381.6666666666667 218 Q 381.6666666666667 226 373.6666666666667 226 L 225 226 Q 217 226 217 234 L 217 260" fill="none" stroke="#f59e0b" stroke-width="1.5" marker-end="url(#arrf59e0b)" opacity="1"/>
<g><rect x="201" y="215" width="32" height="20" rx="10" fill="#fff" stroke="#f59e0b" stroke-width="1.2"/><text x="217" y="230" text-anchor="middle" font-size="12" >🔄</text></g>
<path d="M 121 182 L 121 198 Q 121 206 113 206 L 80 206 Q 72 206 72 214 L 72 260" fill="none" stroke="#94a3b8" stroke-width="1.5" marker-end="url(#arr94a3b8)" opacity="1"/>
<path d="M 249 374 L 249 336 Q 249 328 257 328 L 637 328 Q 645 328 645 320 L 645 110 Q 645 102 637 102 L 421.6666666666667 102 Q 413.6666666666667 102 413.6666666666667 94 L 413.6666666666667 68" fill="none" stroke="#f59e0b" stroke-width="1.5" marker-end="url(#arrf59e0b)" opacity="1"/>
<g><rect x="629" y="91" width="32" height="20" rx="10" fill="#fff" stroke="#f59e0b" stroke-width="1.2"/><text x="645" y="106" text-anchor="middle" font-size="12" >🔄</text></g>
<path d="M 413.6666666666667 260 L 413.6666666666667 182" fill="none" stroke="#f59e0b" stroke-width="1.5" marker-end="url(#arrf59e0b)" opacity="1"/>
<g><rect x="397.6666666666667" y="171" width="32" height="20" rx="10" fill="#fff" stroke="#f59e0b" stroke-width="1.2"/><text x="413.6666666666667" y="186" text-anchor="middle" font-size="12" >🔄</text></g>
<path d="M 429.6666666666667 182 L 429.6666666666667 198 Q 429.6666666666667 206 437.6666666666667 206 L 557.25 206 Q 565.25 206 565.25 214 L 565.25 260" fill="none" stroke="#16a34a" stroke-width="1.5" marker-end="url(#arr16a34a)" opacity="1"/>
<path d="M 217 304 L 217 374" fill="none" stroke="#dc2626" stroke-width="1.5" stroke-dasharray="2 3" marker-end="url(#arrdc2626)" opacity="1"/>
<g><rect x="201" y="363" width="32" height="20" rx="10" fill="#fff" stroke="#dc2626" stroke-width="1.2"/><text x="217" y="378" text-anchor="middle" font-size="12" >🚫</text></g>
<path d="M 429.6666666666667 68 L 429.6666666666667 84 Q 429.6666666666667 92 437.6666666666667 92 L 710 92 Q 718 92 718 100 L 718 138" fill="none" stroke="#c2c7cf" stroke-width="1.5" stroke-dasharray="6 5" marker-end="url(#arrc2c7cf)" opacity="0.65"/>
<g opacity="1"><rect x="349.6666666666667" y="24" width="96" height="44" rx="10" fill="rgb(250,137,114)" stroke="#94a3b8" stroke-width="1.4"/><text x="397.6666666666667" y="51" text-anchor="middle" font-size="14" font-weight="600" fill="#334155">api</text></g>
<g opacity="1"><rect x="24" y="260" width="96" height="44" rx="10" fill="#f8fafc" stroke="#94a3b8" stroke-width="1.4"/><text x="72" y="287" text-anchor="middle" font-size="14" font-weight="600" fill="#334155">catalog</text></g>
<g opacity="1"><rect x="314" y="260" width="149.5" height="44" rx="10" fill="rgb(250,137,114)" stroke="#94a3b8" stroke-width="1.4"/><text x="388.75" y="287" text-anchor="middle" font-size="14" font-weight="600" fill="#334155">notifications</text></g>
<g opacity="1"><rect x="349.6666666666667" y="138" width="96" height="44" rx="10" fill="rgb(220,38,38)" stroke="#94a3b8" stroke-width="1.4"/><text x="397.6666666666667" y="165" text-anchor="middle" font-size="14" font-weight="600" fill="#334155">orders</text></g>
<g opacity="1"><rect x="166" y="260" width="102" height="44" rx="10" fill="rgb(250,137,114)" stroke="#94a3b8" stroke-width="1.4"/><text x="217" y="287" text-anchor="middle" font-size="14" font-weight="600" fill="#334155">payments</text></g>
<g opacity="1"><rect x="73" y="138" width="96" height="44" rx="10" fill="#f8fafc" stroke="#94a3b8" stroke-width="1.4"/><text x="121" y="165" text-anchor="middle" font-size="14" font-weight="600" fill="#334155">reviews</text></g>
<g opacity="1"><rect x="185" y="374" width="96" height="44" rx="10" fill="rgb(254,222,131)" stroke="#94a3b8" stroke-width="1.4"/><text x="233" y="401" text-anchor="middle" font-size="14" font-weight="600" fill="#334155">ui</text></g>
<g opacity="1"><rect x="509.5" y="260" width="111.5" height="44" rx="10" fill="rgb(250,137,114)" stroke="#16a34a" stroke-width="2.2"/><text x="565.25" y="287" text-anchor="middle" font-size="14" font-weight="600" fill="#166534">analytics</text><circle cx="619" cy="262" r="9" fill="#16a34a"/><text x="619" y="266" text-anchor="middle" font-size="12" fill="#fff" font-weight="700">+</text></g>
<g opacity="0.62"><rect x="670" y="138" width="96" height="44" rx="10" fill="#f3f4f6" stroke="#9ca3af" stroke-width="2.2" stroke-dasharray="5 4"/><text x="718" y="165" text-anchor="middle" font-size="14" font-weight="600" fill="#9ca3af">legacy</text><line x1="682" y1="160" x2="754" y2="160" stroke="#9ca3af" stroke-width="1.6"/></g>
</g>
<g font-size="12" fill="#64748b">
<rect x="24" y="524" width="14" height="14" rx="4" fill="#16a34a"/>
<text x="44" y="535">added</text>
<rect x="107" y="524" width="14" height="14" rx="4" fill="#9ca3af"/>
<text x="127" y="535">removed</text>
<rect x="204" y="524" width="14" height="14" rx="4" fill="#dc2626"/>
<text x="224" y="535">forbidden</text>
<rect x="315" y="524" width="14" height="14" rx="4" fill="#f59e0b"/>
<text x="335" y="535">cycle</text>
<rect x="398" y="524" width="14" height="14" rx="4" fill="#7c3aed"/>
<text x="418" y="535">strengthened</text>
<text x="530" y="535">heat:</text>
<rect x="568" y="524" width="16" height="14" fill="#f1f5f9"/>
<rect x="584" y="524" width="16" height="14" fill="rgb(254,240,138)"/>
<rect x="600" y="524" width="16" height="14" fill="rgb(253,186,116)"/>
<rect x="616" y="524" width="16" height="14" fill="rgb(248,113,113)"/>
<rect x="632" y="524" width="16" height="14" fill="rgb(220,38,38)"/>
<text x="654" y="535">churn</text>
</g>
</svg>